<svg width="27" height="23" viewBox="0 0 27 23" fill="none" xmlns="http://www.w3.org/2000/svg">
<path d="M13.5 8.07946V12.7196M13.5 17.3598H13.512M11.4542 2.11683L1.32066 18.5199C1.11173 18.8707 1.00118 19.2684 1.00001 19.6736C0.99884 20.0787 1.10709 20.477 1.31399 20.829C1.52089 21.1809 1.81923 21.4742 2.17932 21.6797C2.53942 21.8851 2.94872 21.9955 3.3665 22H23.6335C24.0513 21.9955 24.4606 21.8851 24.8207 21.6797C25.1808 21.4742 25.4791 21.1809 25.686 20.829C25.8929 20.477 26.0012 20.0787 26 19.6736C25.9988 19.2684 25.8883 18.8707 25.6793 18.5199L15.5458 2.11683C15.3326 1.7759 15.0323 1.49402 14.6739 1.2984C14.3155 1.10277 13.9112 1 13.5 1C13.0888 1 12.6845 1.10277 12.3261 1.2984C11.9677 1.49402 11.6674 1.7759 11.4542 2.11683Z" stroke="#C72727" stroke-width="2" stroke-linecap="round" stroke-linejoin="round"/>
</svg>
